<mxfile host="app.diagrams.net" modified="2020-10-30T14:03:44.950Z" agent="5.0 (Windows NT 10.0; Win64; x64) AppleWebKit/537.36 (KHTML, like Gecko) Chrome/86.0.4240.111 Safari/537.36" etag="DYQZZBQBwZ4nCKxOQy2q" version="13.8.8" type="github">
  <diagram id="kuiyt1MhbL2v9OrnDHOi" name="Page-1">
    <mxGraphModel dx="782" dy="1644" grid="1" gridSize="10" guides="1" tooltips="1" connect="1" arrows="1" fold="1" page="1" pageScale="1" pageWidth="827" pageHeight="1169" math="0" shadow="0">
      <root>
        <mxCell id="0" />
        <mxCell id="1" parent="0" />
        <mxCell id="Zh1UnJbAb8gPV4NuENTu-2" value="&lt;b&gt;&lt;font style=&quot;font-size: 19px&quot;&gt;墨深&lt;/font&gt;&lt;/b&gt;" style="ellipse;whiteSpace=wrap;html=1;aspect=fixed;" vertex="1" parent="1">
          <mxGeometry x="120" y="70" width="100" height="100" as="geometry" />
        </mxCell>
        <mxCell id="Zh1UnJbAb8gPV4NuENTu-3" value="&lt;b&gt;&lt;font style=&quot;font-size: 18px&quot;&gt;未迟&lt;/font&gt;&lt;/b&gt;" style="ellipse;whiteSpace=wrap;html=1;aspect=fixed;" vertex="1" parent="1">
          <mxGeometry x="120" y="320" width="100" height="100" as="geometry" />
        </mxCell>
        <mxCell id="Zh1UnJbAb8gPV4NuENTu-4" value="" style="shape=flexArrow;endArrow=classic;html=1;" edge="1" parent="1" source="Zh1UnJbAb8gPV4NuENTu-2" target="Zh1UnJbAb8gPV4NuENTu-7">
          <mxGeometry width="50" height="50" relative="1" as="geometry">
            <mxPoint x="220" y="110" as="sourcePoint" />
            <mxPoint x="340" y="120" as="targetPoint" />
          </mxGeometry>
        </mxCell>
        <mxCell id="Zh1UnJbAb8gPV4NuENTu-5" value="&lt;b&gt;一实&amp;nbsp;&lt;/b&gt;" style="ellipse;whiteSpace=wrap;html=1;aspect=fixed;" vertex="1" parent="1">
          <mxGeometry x="740" y="320" width="70" height="70" as="geometry" />
        </mxCell>
        <mxCell id="Zh1UnJbAb8gPV4NuENTu-6" value="" style="shape=flexArrow;endArrow=classic;html=1;" edge="1" parent="1" source="Zh1UnJbAb8gPV4NuENTu-9" target="Zh1UnJbAb8gPV4NuENTu-7">
          <mxGeometry width="50" height="50" relative="1" as="geometry">
            <mxPoint x="580" y="40" as="sourcePoint" />
            <mxPoint x="630" y="-10" as="targetPoint" />
          </mxGeometry>
        </mxCell>
        <mxCell id="Zh1UnJbAb8gPV4NuENTu-7" value="&lt;b&gt;墨深科技首页(2D）&lt;/b&gt;" style="rounded=0;whiteSpace=wrap;html=1;" vertex="1" parent="1">
          <mxGeometry x="340" y="90" width="120" height="60" as="geometry" />
        </mxCell>
        <mxCell id="Zh1UnJbAb8gPV4NuENTu-9" value="&lt;b&gt;页面设计&lt;/b&gt;" style="shape=cylinder3;whiteSpace=wrap;html=1;boundedLbl=1;backgroundOutline=1;size=15;fillColor=#d5e8d4;strokeColor=#82b366;" vertex="1" parent="1">
          <mxGeometry x="310" y="-40" width="60" height="80" as="geometry" />
        </mxCell>
        <mxCell id="Zh1UnJbAb8gPV4NuENTu-10" value="&lt;b&gt;云空间&lt;/b&gt;" style="shape=cylinder3;whiteSpace=wrap;html=1;boundedLbl=1;backgroundOutline=1;size=15;fillColor=#f8cecc;strokeColor=#b85450;" vertex="1" parent="1">
          <mxGeometry x="280" y="180" width="60" height="80" as="geometry" />
        </mxCell>
        <mxCell id="Zh1UnJbAb8gPV4NuENTu-11" value="" style="shape=flexArrow;endArrow=classic;html=1;" edge="1" parent="1" source="Zh1UnJbAb8gPV4NuENTu-10" target="Zh1UnJbAb8gPV4NuENTu-7">
          <mxGeometry width="50" height="50" relative="1" as="geometry">
            <mxPoint x="600" y="235" as="sourcePoint" />
            <mxPoint x="650" y="185" as="targetPoint" />
          </mxGeometry>
        </mxCell>
        <mxCell id="Zh1UnJbAb8gPV4NuENTu-12" value="" style="shape=flexArrow;endArrow=classic;html=1;" edge="1" parent="1" source="Zh1UnJbAb8gPV4NuENTu-16" target="Zh1UnJbAb8gPV4NuENTu-15">
          <mxGeometry width="50" height="50" relative="1" as="geometry">
            <mxPoint x="580" y="245" as="sourcePoint" />
            <mxPoint x="630" y="195" as="targetPoint" />
          </mxGeometry>
        </mxCell>
        <mxCell id="Zh1UnJbAb8gPV4NuENTu-13" value="" style="endArrow=classic;html=1;" edge="1" parent="1" source="Zh1UnJbAb8gPV4NuENTu-2" target="Zh1UnJbAb8gPV4NuENTu-9">
          <mxGeometry width="50" height="50" relative="1" as="geometry">
            <mxPoint x="450" y="200" as="sourcePoint" />
            <mxPoint x="500" y="150" as="targetPoint" />
          </mxGeometry>
        </mxCell>
        <mxCell id="Zh1UnJbAb8gPV4NuENTu-14" value="" style="shape=flexArrow;endArrow=classic;html=1;dashed=1;" edge="1" parent="1" source="Zh1UnJbAb8gPV4NuENTu-7" target="Zh1UnJbAb8gPV4NuENTu-15">
          <mxGeometry width="50" height="50" relative="1" as="geometry">
            <mxPoint x="450" y="200" as="sourcePoint" />
            <mxPoint x="550" y="120" as="targetPoint" />
          </mxGeometry>
        </mxCell>
        <mxCell id="Zh1UnJbAb8gPV4NuENTu-15" value="&lt;b&gt;墨深科技首页(3D）&lt;/b&gt;" style="rounded=0;whiteSpace=wrap;html=1;" vertex="1" parent="1">
          <mxGeometry x="560" y="90" width="120" height="60" as="geometry" />
        </mxCell>
        <mxCell id="Zh1UnJbAb8gPV4NuENTu-16" value="3D模型" style="shape=cylinder3;whiteSpace=wrap;html=1;boundedLbl=1;backgroundOutline=1;size=15;dashed=1;" vertex="1" parent="1">
          <mxGeometry x="480" y="210" width="60" height="80" as="geometry" />
        </mxCell>
        <mxCell id="Zh1UnJbAb8gPV4NuENTu-17" value="" style="endArrow=classic;startArrow=classic;html=1;dashed=1;" edge="1" parent="1" source="Zh1UnJbAb8gPV4NuENTu-10" target="Zh1UnJbAb8gPV4NuENTu-16">
          <mxGeometry width="50" height="50" relative="1" as="geometry">
            <mxPoint x="388.5" y="275" as="sourcePoint" />
            <mxPoint x="438.5" y="225" as="targetPoint" />
          </mxGeometry>
        </mxCell>
      </root>
    </mxGraphModel>
  </diagram>
</mxfile>
